<svg width="230" height="47" viewBox="0 0 230 47" fill="none" xmlns="http://www.w3.org/2000/svg">
<rect width="230" height="47" fill="#1D1E23"/>
<path fill-rule="evenodd" clip-rule="evenodd" d="M32.96 29.9999V21.6239C32.96 19.2479 31.688 18.1199 29.552 18.1199C27.776 18.1199 26.24 19.1759 25.568 20.2319C25.136 18.9119 24.056 18.1199 22.352 18.1199C20.576 18.1199 19.04 19.2239 18.56 19.9199V18.4079H15.512V29.9999H18.56V22.1999C19.016 21.5519 19.904 20.8319 20.96 20.8319C22.208 20.8319 22.688 21.5999 22.688 22.6799V29.9999H25.76V22.1759C26.192 21.5519 27.08 20.8319 28.16 20.8319C29.408 20.8319 29.888 21.5999 29.888 22.6799V29.9999H32.96ZM41.336 30.2879C37.52 30.2879 35.216 27.5039 35.216 24.1919C35.216 20.9039 37.52 18.1199 41.336 18.1199C45.176 18.1199 47.48 20.9039 47.48 24.1919C47.48 27.5039 45.176 30.2879 41.336 30.2879ZM41.336 27.5759C43.232 27.5759 44.312 26.0159 44.312 24.1919C44.312 22.3919 43.232 20.8319 41.336 20.8319C39.44 20.8319 38.384 22.3919 38.384 24.1919C38.384 26.0159 39.44 27.5759 41.336 27.5759ZM60.608 29.9999V21.8159C60.608 19.5599 59.384 18.1199 56.84 18.1199C54.944 18.1199 53.528 19.0319 52.784 19.9199V18.4079H49.736V29.9999H52.784V22.1999C53.288 21.5039 54.224 20.8319 55.424 20.8319C56.72 20.8319 57.56 21.3839 57.56 22.9919V29.9999H60.608V29.9999ZM69.008 30.2879C65.192 30.2879 62.888 27.5039 62.888 24.1919C62.888 20.9039 65.192 18.1199 69.008 18.1199C72.848 18.1199 75.152 20.9039 75.152 24.1919C75.152 27.5039 72.848 30.2879 69.008 30.2879ZM69.008 27.5759C70.904 27.5759 71.984 26.0159 71.984 24.1919C71.984 22.3919 70.904 20.8319 69.008 20.8319C67.112 20.8319 66.056 22.3919 66.056 24.1919C66.056 26.0159 67.112 27.5759 69.008 27.5759ZM80.456 26.2799C80.96 27.0239 82.088 27.5759 83.072 27.5759C84.848 27.5759 86.024 26.2319 86.024 24.2159C86.024 22.1999 84.848 20.8319 83.072 20.8319C82.088 20.8319 80.96 21.4079 80.456 22.1759V26.2799ZM80.456 29.9999H77.408V13.9919H80.456V19.8959C81.368 18.7199 82.664 18.1199 84.032 18.1199C86.984 18.1199 89.168 20.4239 89.168 24.2159C89.168 28.0799 86.96 30.2879 84.032 30.2879C82.64 30.2879 81.368 29.6639 80.456 28.5119V29.9999ZM101.48 29.9999H98.432V28.7999C97.64 29.7359 96.272 30.2879 94.76 30.2879C92.912 30.2879 90.728 29.0399 90.728 26.4479C90.728 23.7359 92.912 22.7039 94.76 22.7039C96.296 22.7039 97.664 23.2079 98.432 24.1199V22.5599C98.432 21.3839 97.424 20.6159 95.888 20.6159C94.64 20.6159 93.488 21.0719 92.504 21.9839L91.352 19.9439C92.768 18.6959 94.592 18.1199 96.416 18.1199C99.056 18.1199 101.48 19.1759 101.48 22.5119V29.9999ZM95.984 28.2239C96.968 28.2239 97.928 27.8879 98.432 27.2159V25.7759C97.928 25.1039 96.968 24.7679 95.984 24.7679C94.784 24.7679 93.8 25.3919 93.8 26.5199C93.8 27.5999 94.784 28.2239 95.984 28.2239V28.2239ZM115.376 29.9999V21.8159C115.376 19.5599 114.152 18.1199 111.608 18.1199C109.712 18.1199 108.296 19.0319 107.552 19.9199V18.4079H104.504V29.9999H107.552V22.1999C108.056 21.5039 108.992 20.8319 110.192 20.8319C111.488 20.8319 112.328 21.3839 112.328 22.9919V29.9999H115.376ZM129.728 29.9999L125 23.6639L129.584 18.4079H125.84L121.448 23.5679V13.9919H118.4V29.9999H121.448V27.0239L122.84 25.5359L125.912 29.9999H129.728Z" fill="white"/>
<path fill-rule="evenodd" clip-rule="evenodd" d="M140 13H141V37H140V13Z" fill="white"/>
<path d="M163.432 16.56H158.848V30H156.088V16.56H151.504V14.16H163.432V16.56ZM168.234 30H165.594V18.96H168.234V30ZM165.21 15.408C165.21 15.184 165.25 14.968 165.33 14.76C165.426 14.552 165.554 14.368 165.714 14.208C165.874 14.032 166.05 13.896 166.242 13.8C166.45 13.704 166.674 13.656 166.914 13.656C167.138 13.656 167.354 13.704 167.562 13.8C167.77 13.896 167.954 14.032 168.114 14.208C168.29 14.368 168.426 14.552 168.522 14.76C168.618 14.968 168.666 15.184 168.666 15.408C168.666 15.648 168.618 15.872 168.522 16.08C168.426 16.272 168.29 16.448 168.114 16.608C167.954 16.768 167.77 16.896 167.562 16.992C167.354 17.072 167.138 17.112 166.914 17.112C166.45 17.112 166.05 16.944 165.714 16.608C165.378 16.272 165.21 15.872 165.21 15.408ZM178.699 30V22.704C178.699 21.392 178.179 20.736 177.139 20.736C176.883 20.736 176.603 20.784 176.299 20.88C176.011 20.976 175.723 21.12 175.435 21.312C175.163 21.488 174.907 21.712 174.667 21.984C174.443 22.256 174.283 22.568 174.187 22.92V30H171.547V18.96H173.611L173.731 20.592H173.827C174.147 19.92 174.651 19.424 175.339 19.104C176.043 18.768 176.787 18.6 177.571 18.6C178.323 18.6 179.003 18.752 179.611 19.056C180.235 19.344 180.699 19.848 181.003 20.568C181.323 19.912 181.827 19.424 182.515 19.104C183.203 18.768 183.939 18.6 184.723 18.6C185.235 18.6 185.715 18.672 186.163 18.816C186.627 18.944 187.027 19.16 187.363 19.464C187.715 19.768 187.987 20.168 188.179 20.664C188.387 21.16 188.491 21.768 188.491 22.488V30H185.851V22.704C185.851 21.392 185.331 20.736 184.291 20.736C184.035 20.736 183.755 20.784 183.451 20.88C183.163 20.976 182.875 21.12 182.587 21.312C182.315 21.488 182.059 21.712 181.819 21.984C181.595 22.256 181.435 22.568 181.339 22.92V30H178.699ZM196.602 18.6C198.01 18.6 199.098 18.96 199.866 19.68C200.634 20.384 201.018 21.384 201.018 22.68C201.018 22.856 201.002 23.048 200.97 23.256C200.954 23.448 200.922 23.64 200.874 23.832C200.842 24.024 200.794 24.2 200.73 24.36C200.682 24.504 200.626 24.624 200.562 24.72H193.578C193.61 25.2 193.698 25.656 193.842 26.088C193.986 26.504 194.194 26.872 194.466 27.192C194.738 27.496 195.066 27.744 195.45 27.936C195.85 28.112 196.314 28.2 196.842 28.2C197.434 28.2 198.058 28.088 198.714 27.864C199.386 27.64 199.954 27.36 200.418 27.024L200.85 28.992C200.642 29.12 200.386 29.264 200.082 29.424C199.778 29.568 199.434 29.704 199.05 29.832C198.666 29.96 198.25 30.064 197.802 30.144C197.37 30.24 196.914 30.288 196.434 30.288C195.538 30.288 194.746 30.136 194.058 29.832C193.37 29.512 192.794 29.088 192.33 28.56C191.866 28.016 191.514 27.392 191.274 26.688C191.034 25.984 190.914 25.248 190.914 24.48C190.914 23.696 191.034 22.952 191.274 22.248C191.53 21.528 191.898 20.896 192.378 20.352C192.858 19.808 193.45 19.384 194.154 19.08C194.874 18.76 195.69 18.6 196.602 18.6ZM196.53 20.664C195.858 20.664 195.282 20.864 194.802 21.264C194.338 21.648 194.002 22.176 193.794 22.848H198.378C198.394 22.8 198.402 22.744 198.402 22.68C198.418 22.616 198.426 22.536 198.426 22.44C198.426 21.928 198.25 21.504 197.898 21.168C197.546 20.832 197.09 20.664 196.53 20.664ZM210.015 21.36C209.855 21.232 209.607 21.128 209.271 21.048C208.935 20.968 208.647 20.928 208.407 20.928C208.087 20.928 207.823 21.008 207.615 21.168C207.407 21.312 207.223 21.512 207.063 21.768C206.903 22.008 206.767 22.288 206.655 22.608C206.543 22.928 206.439 23.256 206.343 23.592V30H203.703V18.96H205.767L205.887 21.264H205.983C206.143 20.928 206.311 20.6 206.487 20.28C206.663 19.96 206.863 19.68 207.087 19.44C207.311 19.184 207.567 18.984 207.855 18.84C208.159 18.68 208.511 18.6 208.911 18.6C209.551 18.6 210.151 18.808 210.711 19.224L210.015 21.36Z" fill="#3E98C7"/>
</svg>
