<svg width="292" height="154" viewBox="0 0 292 154" fill="none" xmlns="http://www.w3.org/2000/svg">
<path fill-rule="evenodd" clip-rule="evenodd" d="M205.147 151.733C158.315 161.387 127.93 133.587 66.0756 133.587C44.9385 133.587 -6.15246 145.49 1.75815 71.9373C6.24711 30.199 54.6294 11.2565 99.8437 35.6522C113.148 40.8553 123.653 39.2427 135.058 34.0729C146.462 28.9031 161.13 5.8238 188.775 1.0758C271.967 -13.2125 364.073 118.973 205.147 151.733Z" fill="#D4AF37"/>
<path fill-rule="evenodd" clip-rule="evenodd" d="M203.442 57.3963C206.702 59.5433 209.976 61.8146 213.728 62.8928C217.48 63.971 221.889 63.6413 224.778 61.0161C236.437 50.4224 255.214 48.6512 268.648 56.8775C282.083 65.1039 289.041 82.633 284.906 97.8338C280.771 113.035 265.891 124.623 250.141 124.91C241.98 125.058 234.433 128.959 226.635 131.37C218.837 133.782 209.459 134.4 203.36 128.975C196.787 123.128 197.538 111.08 204.785 106.093C193.396 106.947 182.007 107.8 170.618 108.653C173.123 109.669 175.79 110.817 177.226 113.107C178.663 115.397 178.004 119.144 175.388 119.824C165.645 122.358 155.67 117.74 146.319 114.012C136.968 110.285 125.7 107.547 117.361 113.187C98.5684 125.897 73.7413 123.787 51.359 120.081C45.9894 119.192 39.5301 117.236 38.4136 111.909C28.1365 113.843 17.656 114.696 7.20132 114.448C4.64933 114.388 1.6367 113.986 0.444026 111.729C-1.10133 108.805 1.67277 105.487 4.37443 103.579C12.6246 97.7517 22.6974 94.5457 32.7979 94.5321C35.675 94.5282 37.5958 91.5216 38.3282 88.7394C39.0606 85.9571 39.2659 82.8611 41.1341 80.6731C34.7812 79.7196 28.051 81.6589 23.1797 85.8468C22.2756 86.6241 20.7494 85.8437 20.3699 84.7134C19.9904 83.5832 20.3814 82.3537 20.7828 81.231C23.0305 74.9445 25.8486 68.5573 30.9571 64.259C36.0655 59.9607 44.0469 58.4102 49.4322 62.3563C51.1215 63.5941 53.9899 65.1831 58.0374 67.1232C62.1872 66.4957 65.2728 65.9961 67.2943 65.6245C73.4162 64.4992 79.0924 61.719 84.6417 58.8994C103.979 49.0743 123.806 38.1358 145.487 37.5187C166.228 36.9283 186.112 45.9843 203.442 57.3963ZM225.384 74.4289L227.33 79.3293C227.425 79.5695 227.528 79.8207 227.729 79.9832C227.973 80.1803 228.307 80.2066 228.617 80.2513C230.995 80.5938 232.859 82.3996 234.544 84.1118C236.703 86.3051 238.862 88.4984 241.021 90.6917C241.668 91.3489 242.743 90.6383 243.363 89.955C244.755 88.4189 246.173 86.8432 246.977 84.9322C247.781 83.0212 247.867 80.6776 246.669 78.9857C245.957 77.9804 244.873 77.3024 243.762 76.7711C241.927 75.894 239.937 75.3439 237.913 75.1542C235.939 74.9693 233.95 75.1247 231.968 75.1101C229.758 75.0938 227.55 74.8653 225.384 74.4289Z" fill="white"/>
<path fill-rule="evenodd" clip-rule="evenodd" d="M38.4136 111.909C28.1365 113.843 17.656 114.696 7.20133 114.449C4.1927 110.064 36.7498 101.986 37.9304 107.311C38.8639 111.522 38.9066 114.261 38.4136 111.909Z" fill="#E7EAEE"/>
<path fill-rule="evenodd" clip-rule="evenodd" d="M196.081 97.7042C197.179 97.5869 201.543 96.5171 206.126 97.013C208.588 95.7487 220.389 96.7418 227.433 98.1219C231.955 99.0078 243.415 99.5963 247.576 101.719C254.8 105.404 254.966 107.681 253.879 108.169C250.791 109.555 247.071 110.238 245.072 110.275C241.472 110.34 234.23 107.013 226.287 104.929C222.739 103.998 220.132 103.207 218.078 102.44L218.413 102.293C213.97 104.299 209.373 104.619 204.785 106.093C193.396 106.947 182.007 107.8 170.618 108.653C173.123 109.669 135.433 95.9464 146.319 93.9443C146.99 93.8209 147.73 93.7459 148.532 93.7123C158.725 93.285 178.98 99.5318 196.081 97.7042Z" fill="#E7EAEE"/>
<path fill-rule="evenodd" clip-rule="evenodd" d="M94.3696 80.7642C94.5086 81.0124 94.4035 81.3424 94.1948 81.5358C93.9862 81.7292 93.6997 81.8126 93.4201 81.8651C91.3611 82.2517 89.1116 81.1285 88.1833 79.2505C88.0798 79.0412 87.9896 78.8113 88.0211 78.5799C88.0527 78.3485 88.2471 78.1245 88.4802 78.1384C89.0796 78.7997 89.6877 79.4684 90.434 79.9578C91.1803 80.4472 92.0926 80.7454 92.9703 80.5842C93.4684 80.4927 94.1223 80.3223 94.3696 80.7642Z" fill="#00160A"/>
<path fill-rule="evenodd" clip-rule="evenodd" d="M95.7192 106.382C95.7482 105.802 96.4747 105.56 97.0548 105.538C99.6538 105.442 102.074 106.716 104.475 107.717C106.875 108.718 109.67 109.456 112.015 108.33C112.504 108.095 113.017 107.774 113.548 107.887C112.667 109.595 110.562 110.371 108.643 110.265C106.725 110.16 104.927 109.349 103.157 108.598C101.388 107.848 99.527 107.134 97.6083 107.242C97.2148 107.263 96.8118 107.319 96.4326 107.212C96.0533 107.105 95.6995 106.776 95.7192 106.382Z" fill="#00160A"/>
<path fill-rule="evenodd" clip-rule="evenodd" d="M100.269 111.246C98.4762 110.723 96.3802 110.985 94.9076 109.836C94.7277 109.696 94.55 109.512 94.543 109.283C94.5332 108.964 94.8778 108.73 95.1975 108.722C95.5173 108.713 95.8175 108.859 96.1177 108.969C97.2141 109.372 98.4209 109.318 99.5654 109.551C101.282 109.901 102.794 110.88 104.411 111.555C106.028 112.229 107.968 112.574 109.474 111.679C110.081 111.317 110.88 110.778 111.383 111.274C109.744 113.141 106.969 113.919 104.597 113.176C103.087 112.703 101.788 111.689 100.269 111.246Z" fill="#00160A"/>
<path fill-rule="evenodd" clip-rule="evenodd" d="M48.6024 92.3404C48.3142 91.9718 48.3166 91.4369 48.5005 91.0067C48.6845 90.5765 49.0221 90.2321 49.3711 89.9204C51.0278 88.4406 53.3206 87.4388 55.4712 87.995C57.0831 88.4119 58.3583 89.6202 59.4868 90.8442C59.97 91.3683 60.4686 92.1189 60.1068 92.733C59.7205 93.389 58.7507 93.2503 58.0159 93.051C55.7354 92.4326 53.3183 92.0683 51.0137 92.59C50.1776 92.7792 49.1304 93.0157 48.6024 92.3404Z" fill="#00160A"/>
<path fill-rule="evenodd" clip-rule="evenodd" d="M85.9536 114.559C86.2714 114.751 86.2275 115.264 85.9627 115.525C85.698 115.785 85.3077 115.86 84.9418 115.922C82.89 116.274 80.8383 116.626 78.7866 116.978C78.3583 117.051 77.8795 117.115 77.5223 116.867C77.1651 116.62 77.1548 115.931 77.58 115.841C80.1523 115.298 82.745 114.852 85.3507 114.503C85.5549 114.476 85.7773 114.453 85.9536 114.559Z" fill="#00160A"/>
<path fill-rule="evenodd" clip-rule="evenodd" d="M80.7181 93.1223C80.2667 93.2897 79.7682 92.8538 79.7073 92.3763C79.6464 91.8988 79.8934 91.4367 80.1794 91.0495C81.5101 89.2474 83.8817 88.3247 86.1047 88.6019C88.3276 88.8791 90.3468 90.2874 91.5146 92.1992C91.6948 92.4941 91.8617 92.833 91.7934 93.1719C91.7194 93.5387 91.3765 93.8046 91.0134 93.8954C90.6503 93.9862 90.2682 93.9342 89.8994 93.8704C88.3644 93.6049 86.8678 93.1454 85.3316 92.8869C83.7955 92.6285 82.1786 92.5804 80.7181 93.1223Z" fill="#00160A"/>
<path fill-rule="evenodd" clip-rule="evenodd" d="M51.7078 80.7908C51.8824 80.2793 52.6218 80.4059 53.1519 80.511C54.8043 80.8389 56.4204 79.9177 57.8538 79.0329C58.0452 78.9148 58.2999 79.1392 58.2958 79.364C58.2915 79.5889 58.1296 79.7763 57.9715 79.9361C56.5424 81.3804 54.4053 82.3685 52.4732 81.7399C52.0414 81.5994 51.5611 81.2205 51.7078 80.7908Z" fill="#00160A"/>
<path fill-rule="evenodd" clip-rule="evenodd" d="M109.101 89.5441C108.543 89.4378 108.254 88.7613 108.358 88.2035C108.463 87.6457 108.841 87.1854 109.199 86.7446C110.549 85.0796 111.779 83.3089 112.749 81.3972C113.583 79.753 114.221 78.0094 115.159 76.4221C117.842 71.8805 123.045 68.9444 128.32 68.9958C126.206 67.4828 123.707 66.5879 121.176 65.9957C113.347 64.164 104.889 65.1579 97.6974 68.7545C96.5608 69.3229 95.4522 69.9551 94.2669 70.4135C93.7202 70.625 93.1154 70.7995 92.5554 70.6263C91.9953 70.453 91.5558 69.7935 91.8162 69.2683C91.9664 68.9656 92.2898 68.7963 92.5929 68.6468C95.6565 67.135 98.733 65.618 101.98 64.5568C109.245 62.1827 117.272 62.2066 124.522 64.624C126.955 65.4351 129.497 66.6954 130.55 69.0335C130.712 69.3922 130.727 69.9656 130.338 70.0242C126.16 70.6539 121.909 72.0998 119.025 75.1877C115.29 79.187 114.385 85.3278 110.335 89.0074C109.99 89.3207 109.558 89.6313 109.101 89.5441Z" fill="#00160A"/>
<path fill-rule="evenodd" clip-rule="evenodd" d="M170.618 108.653C173.123 109.669 175.79 110.817 177.226 113.107C178.663 115.397 178.004 119.144 175.388 119.824C165.645 122.358 155.67 117.74 146.319 114.012C136.968 110.285 125.7 107.547 117.361 113.187C98.5684 125.897 73.7413 123.787 51.359 120.081C45.9894 119.192 39.5301 117.236 38.4136 111.909C28.1365 113.843 17.656 114.696 7.20132 114.448C4.64933 114.388 1.6367 113.986 0.444026 111.729C-1.10133 108.805 1.67277 105.487 4.37443 103.579C12.6246 97.7517 22.6974 94.5457 32.7979 94.5321C35.675 94.5282 37.5958 91.5216 38.3282 88.7394C39.0606 85.9571 39.2659 82.8611 41.1341 80.6731C34.7812 79.7196 28.051 81.6589 23.1797 85.8468C22.2756 86.6241 20.7494 85.8437 20.3699 84.7134C19.9904 83.5832 20.3814 82.3537 20.7828 81.231C23.0305 74.9445 25.8486 68.5573 30.9571 64.259C36.0655 59.9607 41.7196 58.3292 49.3972 61.8254C51.4078 62.7409 54.2794 64.3678 58.012 66.7059C62.1372 66.3642 65.2313 66.0038 67.2943 65.6245C73.4162 64.4992 79.0924 61.719 84.6417 58.8994C103.979 49.0743 123.806 38.1358 145.487 37.5187C166.228 36.9283 186.112 45.9843 203.442 57.3963C206.702 59.5433 209.976 61.8146 213.728 62.8928C217.48 63.971 221.889 63.6413 224.778 61.0161C236.437 50.4224 255.214 48.6512 268.648 56.8775C282.083 65.1039 289.041 82.633 284.906 97.8338C280.771 113.035 265.891 124.623 250.141 124.91C241.98 125.058 234.433 128.959 226.635 131.37C218.837 133.782 209.459 134.4 203.36 128.975C196.787 123.128 197.538 111.08 204.785 106.093C193.396 106.947 182.007 107.8 170.618 108.653ZM236.543 87.6421C230.796 81.861 222.221 79.0341 214.162 80.2638C218.064 79.0514 222.245 78.7459 226.282 79.3782C214.839 62.854 196.373 52.533 177.551 45.4818C168.404 42.0552 158.879 39.2385 149.114 39.0229C136.401 38.7422 124.011 42.8741 112.269 47.7538C99.3811 53.1095 86.9146 59.418 74.4622 65.7199C78.3043 65.5235 82.1986 67.2118 84.6816 70.1504C74.2515 65.8495 61.8971 66.5126 51.9873 71.9053C52.0348 69.9351 53.6092 68.1089 55.551 67.7719C49.8804 62.7756 41.1688 61.5629 34.3493 64.8205C27.5297 68.0781 22.9985 75.6167 23.3214 83.1674C29.0806 78.4044 37.3872 76.9315 44.433 79.4239C40.2393 86.4217 38.0743 94.6196 38.266 102.776C40.4697 101.847 43.1852 102.284 44.9869 103.856C42.9739 104.073 40.961 104.289 38.948 104.506C39.0331 105.424 39.1181 106.343 39.2032 107.261C41.3332 106.947 43.4632 106.633 45.5932 106.319C44.2224 107.896 42.2895 108.974 40.2275 109.311C39.9686 111.935 41.79 114.411 44.0751 115.726C46.3602 117.041 49.0439 117.433 51.6547 117.801C58.1621 118.718 64.6695 119.635 71.1768 120.551C69.6676 118.849 69.4205 116.109 68.4353 114.214C67.1591 111.76 65.3166 110.761 64.3928 107.505C64.074 106.382 63.3394 104.8 64.3674 104.086C64.7992 103.786 65.3616 103.775 65.8874 103.774C68.0355 103.772 70.1836 103.77 72.3317 103.767C73.0258 103.767 73.7518 103.773 74.3653 104.098C76.2245 105.081 75.6372 107.986 74.2488 109.565C72.8604 111.145 70.875 112.407 70.4008 114.456C69.9136 116.561 71.3307 118.743 73.2128 119.804C75.0948 120.864 77.3341 121.044 79.4933 121.118C84.0441 121.274 88.6074 121.063 93.1245 120.488C104.496 119.041 116.611 114.408 121.889 104.232C121.57 106.797 120.229 109.221 118.226 110.854C126.511 107.803 135.893 107.837 144.156 110.949C151.992 113.9 159.426 119.6 167.737 118.577C167.381 118.288 167.242 117.789 166.886 117.5C165.917 116.714 164.729 116.138 163.76 115.352C166.723 116.436 169.686 117.519 172.649 118.603C172.312 118.111 172.649 117.613 172.022 116.859C171.395 116.106 170.027 114.761 169.22 113.579C171.464 114.232 173.43 115.789 174.58 117.824C175.539 117.589 176.498 117.354 177.457 117.12C172.589 110.548 165.858 105.372 158.257 102.354C154.57 100.89 149.998 99.1371 149.537 95.1961C157.826 103.201 169.704 106.616 181.225 106.859C192.745 107.103 204.113 104.486 215.338 101.884C212.768 100.585 210.451 98.7877 208.553 96.6221C221.161 103.686 235.268 108.06 249.66 109.369C248.844 107.985 248.028 106.601 247.211 105.217C248.997 105.268 250.665 106.622 251.082 108.359C251.977 108.007 252.873 107.654 253.768 107.302C252.523 106.081 251.277 104.86 250.032 103.639C252.035 103.156 254.283 104.701 254.55 106.744C255.388 106.308 256.08 105.596 256.491 104.746C255.002 103.619 253.513 102.491 252.024 101.364C254.281 101.318 256.547 102.073 258.325 103.465C256.221 98.3498 249.103 98.2279 244.374 95.3595C241.229 93.4517 239.136 90.2507 236.543 87.6421ZM225.838 72.9462C228.651 73.6281 231.596 73.1 234.49 73.1086C237.489 73.1175 240.476 73.7124 243.285 74.76C245.02 75.4067 246.754 76.2756 247.881 77.7435C249.669 80.0704 249.513 83.4458 248.266 86.1018C247.019 88.7578 244.861 90.8574 242.749 92.8941C247.183 94.8722 251.617 96.8503 256.051 98.8283C257.304 99.3872 258.658 100.043 259.231 101.29C260.222 103.445 258.299 105.81 256.324 107.123C250.162 111.222 241.782 111.725 235.174 108.392C230.935 106.254 226.235 105.234 221.594 104.235C219.06 103.689 216.42 103.144 213.903 103.761C212.116 104.199 210.432 105.215 208.593 105.153C206.951 105.097 205.673 106.516 204.711 107.848C201.543 112.232 198.931 117.835 200.786 122.915C202.061 126.409 205.293 128.926 208.815 130.12C212.337 131.314 216.143 131.348 219.855 131.111C224.5 130.816 229.232 130.079 233.311 127.837C235.967 126.377 238.344 124.285 241.282 123.54C244.807 122.647 248.521 123.846 252.148 123.581C255.036 123.37 257.769 122.239 260.413 121.059C266.872 118.176 273.333 114.773 277.914 109.384C284.747 101.348 286.371 89.5726 283.107 79.5427C279.842 69.5128 272.128 61.2663 262.896 56.1658C260.357 54.7635 257.684 53.572 254.87 52.8721C248.114 51.192 240.72 52.515 234.816 56.2038C231.776 58.103 229.135 60.5777 226.157 62.5716C223.178 64.5654 219.677 66.1012 216.11 65.7529C218.859 68.7911 221.856 71.9809 225.838 72.9462ZM13.1953 100.418C9.05703 102.031 4.91629 104.172 2.29356 107.756C3.5003 107.091 5.01557 107.018 6.28121 107.562C5.35859 108.018 4.43597 108.474 3.51335 108.93C2.9965 109.185 2.46223 109.454 2.10326 109.905C1.74429 110.357 1.61448 111.045 1.96201 111.505C2.30954 111.965 3.18848 111.923 3.3566 111.372C3.97344 109.348 6.35543 108.055 8.38826 108.64C6.86147 109.509 5.1943 110.557 4.77184 112.263C5.00014 113.031 6.12528 113.158 6.78657 112.705C7.44787 112.251 7.77788 111.466 8.15819 110.761C8.5385 110.055 9.09085 109.333 9.88402 109.217C10.0514 109.192 10.2427 109.205 10.359 109.328C10.5616 109.542 10.3943 109.892 10.2037 110.117C9.77174 110.627 9.22047 111.073 9.0081 111.707C8.79573 112.34 9.17524 113.226 9.84216 113.185C19.2065 112.613 28.5532 111.753 37.8645 110.605C38.201 109.876 37.1787 109.284 36.3833 109.176C34.3644 108.902 32.2875 109.064 30.3353 109.647C30.6959 108.447 31.9077 107.661 33.1403 107.436C34.3728 107.211 35.6377 107.443 36.8692 107.674C36.8788 106.809 36.7173 105.942 36.3969 105.139C34.439 105.098 32.4982 104.444 30.9148 103.292C32.2383 102.796 33.7759 102.909 35.013 103.592C35.6037 103.918 36.0439 102.964 36.0536 102.289C36.0853 100.096 36.117 97.9035 36.1487 95.7107C28.3051 95.968 20.5072 97.5671 13.1953 100.418ZM228.617 80.2513C230.995 80.5938 232.859 82.3996 234.544 84.1118C236.703 86.3051 238.862 88.4984 241.021 90.6917C241.668 91.3489 242.743 90.6383 243.363 89.955C244.755 88.4189 246.173 86.8432 246.977 84.9322C247.781 83.0212 247.867 80.6776 246.669 78.9857C245.957 77.9804 244.873 77.3024 243.762 76.7711C241.927 75.894 239.937 75.3439 237.913 75.1542C235.939 74.9693 233.95 75.1247 231.968 75.1101C229.758 75.0938 227.55 74.8653 225.384 74.4289C226.033 76.0624 226.681 77.6959 227.33 79.3293C227.425 79.5695 227.528 79.8207 227.729 79.9832C227.973 80.1803 228.307 80.2066 228.617 80.2513Z" fill="#00160A"/>
</svg>
